<?xml version="1.0" encoding="utf-8"?>
<!-- Generator: Adobe Illustrator 15.0.0, SVG Export Plug-In . SVG Version: 6.00 Build 0)  -->
<!DOCTYPE svg PUBLIC "-//W3C//DTD SVG 1.1//EN" "http://www.w3.org/Graphics/SVG/1.1/DTD/svg11.dtd">
<svg version="1.1" id="Layer_1" xmlns="http://www.w3.org/2000/svg" xmlns:xlink="http://www.w3.org/1999/xlink" x="0px" y="0px"
	 width="53.244px" height="60.083px" viewBox="0 0 53.244 60.083" enable-background="new 0 0 53.244 60.083" xml:space="preserve">
<g>
	<g>
		<polygon fill="#231F20" points="53.244,10.104 53.242,10.105 53.244,10.667 		"/>
		<path fill="#231F20" d="M43.036,4c0,0-11.167-0.917-18.917-1.083c-1.25,0.813-11.438,7.688-14.563,10.063s-10.262,7.205-9.5,8.063
			c1,1.125,3.25,0.688,5.5-0.188s9.25-4.75,12.313-6.125c0.195,4.11,2.446,6.544,4.18,7.543c-3.144,0.988-5.43,3.929-5.43,7.395
			c0,4.273,3.477,7.75,7.75,7.75s7.75-3.477,7.75-7.75c0-2.163-0.893-4.12-2.327-5.527c1.84-0.728,7.171-3.369,12.16-6.036
			c3.343-1.833,11.267-7.98,11.29-7.999L53.203,0L43.036,4z M30.619,29.667c0,3.446-2.804,6.25-6.25,6.25s-6.25-2.804-6.25-6.25
			s2.804-6.25,6.25-6.25S30.619,26.22,30.619,29.667z M33.536,15.333c-0.75,1.75-2.5,3-5.583,5.917
			c-0.454,0.43-0.755,0.803-0.956,1.135c-0.799-0.289-1.654-0.455-2.55-0.464c0.341-1.584-1.176-4.551-1.245-5.92
			c-0.084-1.667,0.584-4,5.417-4S34.286,13.583,33.536,15.333z"/>
		<path fill="#231F20" d="M25.999,29.202c-0.283-0.162-0.673-0.333-1.171-0.515c-0.453-0.167-0.749-0.307-0.887-0.419
			c-0.138-0.113-0.207-0.274-0.207-0.484c0-0.207,0.072-0.383,0.215-0.528c0.144-0.146,0.333-0.218,0.569-0.218
			c0.472,0,0.82,0.325,1.045,0.974l1.154-0.474c-0.276-0.947-0.882-1.477-1.818-1.589v-0.773h-0.838v0.773
			c-0.621,0.087-1.075,0.327-1.364,0.719c-0.288,0.392-0.433,0.833-0.433,1.322c0,0.374,0.081,0.702,0.242,0.982
			c0.162,0.281,0.372,0.5,0.632,0.656c0.26,0.156,0.619,0.314,1.08,0.474c0.512,0.181,0.842,0.331,0.991,0.449
			c0.148,0.118,0.223,0.292,0.223,0.52c0,0.221-0.074,0.41-0.223,0.566c-0.149,0.156-0.382,0.234-0.697,0.234
			c-0.675,0-1.072-0.365-1.191-1.094l-1.296,0.337c0.262,1.161,0.939,1.798,2.036,1.911v0.996h0.838v-1.001
			c0.657-0.069,1.159-0.298,1.508-0.688s0.522-0.877,0.522-1.461c0-0.381-0.084-0.714-0.253-0.999
			C26.508,29.586,26.282,29.364,25.999,29.202z"/>
	</g>
	<path fill="#E1524B" d="M43.202,36.25H5.369c-0.552,0-1,0.448-1,1v21.833c0,0.553,0.448,1,1,1h37.833c0.553,0,1-0.447,1-1V37.25
		C44.202,36.697,43.755,36.25,43.202,36.25z M32.036,41.167c0,0.553-0.447,1-1,1H18.12c-0.553,0-1-0.447-1-1v-0.584
		c0-0.552,0.447-1,1-1h12.916c0.553,0,1,0.448,1,1V41.167z"/>
</g>
</svg>
