<?xml version="1.0" encoding="utf-8"?>
<!-- Generator: Adobe Illustrator 15.0.0, SVG Export Plug-In . SVG Version: 6.00 Build 0)  -->
<!DOCTYPE svg PUBLIC "-//W3C//DTD SVG 1.1//EN" "http://www.w3.org/Graphics/SVG/1.1/DTD/svg11.dtd">
<svg version="1.1" id="Layer_1" xmlns="http://www.w3.org/2000/svg" xmlns:xlink="http://www.w3.org/1999/xlink" x="0px" y="0px"
	 width="60.673px" height="45.297px" viewBox="0 0 60.673 45.297" enable-background="new 0 0 60.673 45.297" xml:space="preserve">
<g>
	<path fill="#231F20" d="M60.673,24.172l-6.875,2.578v-1.12c0-4.971-4.029-9-9-9H25.799c-4.971,0-9,4.029-9,9v10.667
		c0,4.971,4.029,9,9,9h18.999c4.971,0,9-4.029,9-9v-1.59l6.75,2.465L60.673,24.172z"/>
	<polygon fill="#FFFFFF" points="32.131,37.131 32.131,24.631 41.631,30.464 	"/>
	<g>
		<path fill="#DF3429" d="M16.739,0.015c-4.277-0.073-8.45,1.41-11.746,4.595S0.007,11.978,0,16.191
			c-0.005,0.259,0.057,0.455,0.248,0.652c0.19,0.197,0.384,0.266,0.643,0.27l1.815,0.031c0.518,0.01,0.912-0.373,0.922-0.891
			c0.057-3.24,1.343-6.524,3.913-9.008c2.569-2.483,5.896-3.657,9.136-3.603c0.519,0.009,0.914-0.373,0.923-0.892l0.03-1.813
			c0.005-0.26-0.056-0.455-0.248-0.653C17.191,0.087,16.935-0.046,16.739,0.015z"/>
		<path fill="#DF3429" d="M10.089,9.882c-1.846,1.783-2.727,4.037-2.767,6.369c-0.009,0.518,0.374,0.913,0.892,0.922l1.814,0.031
			c0.518,0.009,0.914-0.374,0.922-0.891c0.025-1.427,0.632-2.777,1.687-3.795c1.055-1.02,2.488-1.513,3.85-1.556
			c0.518,0.009,0.914-0.373,0.923-0.891l0.03-1.814c0.01-0.519-0.372-0.914-0.891-0.923C14.217,7.295,11.935,8.099,10.089,9.882z"/>
		<circle fill="#DF3429" cx="16.458" cy="16.473" r="1.833"/>
	</g>
</g>
</svg>
